<svg id="Layer_1" data-name="Layer 1" xmlns="http://www.w3.org/2000/svg" viewBox="0 0 290.09 288.57"><defs><style>.cls-1{fill:#f62459;}.cls-2,.cls-3{fill:#89c4f4;}.cls-2{opacity:0.8;}.cls-3{opacity:0.6;}</style></defs><title>ra_icon</title><path class="cls-1" d="M227.8,144.28l3,.9c.74.23,1.44.46,2.1.72a23,23,0,0,0,9.1-5.82h0V140l-.05.05H231.52a4,4,0,0,0-4.23-3.56,4.4,4.4,0,0,0-2.92,1.05,3.32,3.32,0,0,0-1.2,2.67,2.89,2.89,0,0,0,1,2.38A10.86,10.86,0,0,0,227.8,144.28Z" transform="translate(-4.91 -5.43)"/><circle class="cls-1" cx="142.32" cy="62.02" r="22.83"/><path class="cls-1" d="M69,152.3A22.84,22.84,0,1,0,90.7,168.09,22.78,22.78,0,0,0,69,152.3Z" transform="translate(-4.91 -5.43)"/><path class="cls-1" d="M117.35,229.7a22.86,22.86,0,1,0-18.5,9.41A22.86,22.86,0,0,0,117.35,229.7Z" transform="translate(-4.91 -5.43)"/><path class="cls-1" d="M76,102.59A22.55,22.55,0,0,0,69,101.46a22.84,22.84,0,0,0-7,44.57A22.55,22.55,0,0,0,69,147.15a22.84,22.84,0,0,0,7-44.57Z" transform="translate(-4.91 -5.43)"/><path class="cls-1" d="M98.9,106a22.84,22.84,0,1,0-18.5-9.41A22.68,22.68,0,0,0,98.9,106Z" transform="translate(-4.91 -5.43)"/><circle class="cls-1" cx="142.32" cy="226.55" r="22.83"/><path class="cls-1" d="M177.11,69.73a22.86,22.86,0,1,0,18.5-9.41A22.86,22.86,0,0,0,177.11,69.73Z" transform="translate(-4.91 -5.43)"/><path class="cls-1" d="M195.56,193.44a22.84,22.84,0,1,0,18.5,9.41A22.68,22.68,0,0,0,195.56,193.44Z" transform="translate(-4.91 -5.43)"/><circle class="cls-2" cx="103.11" cy="24.35" r="16.15"/><circle class="cls-3" cx="142.44" cy="8.07" r="8.07"/><path class="cls-3" d="M67.27,47.51A8.17,8.17,0,0,0,72,46a8.07,8.07,0,0,0-4.74-14.61,8.17,8.17,0,0,0-4.74,1.54,8.07,8.07,0,0,0,4.74,14.61Z" transform="translate(-4.91 -5.43)"/><path class="cls-3" d="M17.66,183.62a8.37,8.37,0,0,0-2.49.38,8.08,8.08,0,0,0,2.49,15.76,8.37,8.37,0,0,0,2.49-.38,8.08,8.08,0,0,0-2.49-15.76Z" transform="translate(-4.91 -5.43)"/><path class="cls-3" d="M71.81,253.3a8,8,0,0,0-4.74-1.54,8.07,8.07,0,0,0-4.74,14.61,8,8,0,0,0,4.74,1.54,8.07,8.07,0,0,0,4.74-14.61Z" transform="translate(-4.91 -5.43)"/><path class="cls-3" d="M15.22,115.17a7.62,7.62,0,0,0,2.49.38,8.08,8.08,0,0,0,2.51-15.76,7.62,7.62,0,0,0-2.49-.38,8.08,8.08,0,0,0-2.51,15.76Z" transform="translate(-4.91 -5.43)"/><circle class="cls-3" cx="142.19" cy="280.49" r="8.07"/><path class="cls-2" d="M45,91.87A16.16,16.16,0,1,0,32,85.21,16.15,16.15,0,0,0,45,91.87Z" transform="translate(-4.91 -5.43)"/><path class="cls-2" d="M16.07,165.3A16.14,16.14,0,1,0,5.71,144.95,16.16,16.16,0,0,0,16.07,165.3Z" transform="translate(-4.91 -5.43)"/><path class="cls-3" d="M279.24,184.26a7.62,7.62,0,0,0-2.49-.38,8.08,8.08,0,0,0-2.51,15.76,7.62,7.62,0,0,0,2.49.38,8.08,8.08,0,0,0,2.51-15.76Z" transform="translate(-4.91 -5.43)"/><path class="cls-3" d="M276.8,115.81a8.37,8.37,0,0,0,2.49-.38,8.08,8.08,0,0,0-2.51-15.76,8.37,8.37,0,0,0-2.49.38,8.08,8.08,0,0,0,2.51,15.76Z" transform="translate(-4.91 -5.43)"/><path class="cls-3" d="M222.65,46.13a8,8,0,0,0,4.74,1.54,8.07,8.07,0,0,0,4.74-14.61,8,8,0,0,0-4.74-1.54,8.07,8.07,0,0,0-4.74,14.61Z" transform="translate(-4.91 -5.43)"/><path class="cls-3" d="M227.19,251.92a8.17,8.17,0,0,0-4.74,1.54,8.07,8.07,0,0,0,4.74,14.61,8.17,8.17,0,0,0,4.74-1.54,8.07,8.07,0,0,0-4.74-14.61Z" transform="translate(-4.91 -5.43)"/><path class="cls-2" d="M60.63,219.09a16.15,16.15,0,1,0-10.35,20.35A16.15,16.15,0,0,0,60.63,219.09Z" transform="translate(-4.91 -5.43)"/><path class="cls-2" d="M117.94,256.74a16.16,16.16,0,1,0,3.56,22.55A16.1,16.1,0,0,0,117.94,256.74Z" transform="translate(-4.91 -5.43)"/><circle class="cls-2" cx="181.53" cy="264.22" r="16.15"/><path class="cls-2" d="M176.52,42.7A16.16,16.16,0,1,0,173,20.14,16.1,16.1,0,0,0,176.52,42.7Z" transform="translate(-4.91 -5.43)"/><path class="cls-1" d="M247.18,117.25a22.84,22.84,0,1,0-34.52,26,14.8,14.8,0,0,1-.28-2.9,12.74,12.74,0,0,1,4.28-9.71,16.41,16.41,0,0,1,21.17-.21A12.47,12.47,0,0,1,242,140,22.74,22.74,0,0,0,247.18,117.25Z" transform="translate(-4.91 -5.43)"/><path class="cls-2" d="M233.83,80.34A16.15,16.15,0,1,0,244.18,60,16.15,16.15,0,0,0,233.83,80.34Z" transform="translate(-4.91 -5.43)"/><path class="cls-2" d="M249.43,207.56a16.16,16.16,0,1,0,13.07,6.66A16.15,16.15,0,0,0,249.43,207.56Z" transform="translate(-4.91 -5.43)"/><path class="cls-1" d="M218.4,196.87a22.55,22.55,0,0,0,7.07,1.13,22.84,22.84,0,0,0,17.61-37.37,14.22,14.22,0,0,1-4.48,8.56,15.89,15.89,0,0,1-11.38,4.41c-4.74,0-8.56-1.33-11.43-4s-4.54-6.43-5-11.33H221.6a8.7,8.7,0,0,0,2.23,4.13,5.35,5.35,0,0,0,3.77,1.31,5.14,5.14,0,0,0,3.49-1.2,4,4,0,0,0,1.38-3.15,3.6,3.6,0,0,0-1.38-3.08c-.92-.69-3.31-1.69-7.18-3-.67-.23-1.31-.46-1.92-.72a22.83,22.83,0,0,0-3.59,44.28Z" transform="translate(-4.91 -5.43)"/><path class="cls-2" d="M271.12,126.63a23.08,23.08,0,0,0-16.84,6.89,23.27,23.27,0,0,0,0,33.24,24.14,24.14,0,0,0,33.73-.05,22.43,22.43,0,0,0,7-16.53,22.69,22.69,0,0,0-6.92-16.73A23.3,23.3,0,0,0,271.12,126.63Zm9.28,33.14a12.45,12.45,0,0,1-9.28,4,12.32,12.32,0,0,1-9.2-4,14.07,14.07,0,0,1,0-19.27,12.73,12.73,0,0,1,18.48,0,14.07,14.07,0,0,1,0,19.27Z" transform="translate(-4.91 -5.43)"/><path class="cls-1" d="M232.88,145.95l-.36.13a24.85,24.85,0,0,1-7,1.05,23,23,0,0,1-12.79-3.92,10.42,10.42,0,0,0,2.59,5.1,19,19,0,0,0,6.74,4.28,22,22,0,0,1,3.46-.26,22.78,22.78,0,0,1,7.07,1.13,22.5,22.5,0,0,1,10.56,7.2,16.87,16.87,0,0,0,.15-2.31,11.1,11.1,0,0,0-2.84-8A20,20,0,0,0,232.88,145.95Z" transform="translate(-4.91 -5.43)"/></svg>